<svg width="172" height="15" viewBox="0 0 172 15" fill="none" xmlns="http://www.w3.org/2000/svg">
<path d="M6.32 6.04H9.92V7.96H6.32V11.56H4.4V7.96H0.8V6.04H4.4V2.44H6.32V6.04ZM10.4614 0.4H20.5614V2.2L14.9214 14H12.4614L17.9814 2.44H10.4614V0.4ZM33.4036 0.4H35.7436V9.24H38.0836V11.22H35.7436V14H33.5436V11.22H26.1636V9.28L33.4036 0.4ZM33.5436 9.24V3.3L28.7036 9.24H33.5436ZM39.3719 4.7C39.3719 3.26 39.8519 2.14 40.8119 1.34C41.7719 0.54 42.9719 0.14 44.4119 0.14C46.4252 0.14 47.9119 0.739999 48.8719 1.94C49.8452 3.14 50.3319 4.85333 50.3319 7.08C50.3319 9.45333 49.7452 11.2467 48.5719 12.46C47.3985 13.66 45.8852 14.26 44.0319 14.26C42.7919 14.26 41.6185 13.9933 40.5119 13.46V11.38C41.5385 11.9533 42.6385 12.24 43.8119 12.24C44.9585 12.24 45.9119 11.9 46.6719 11.22C47.4452 10.54 47.8985 9.44 48.0319 7.92C46.8052 8.65333 45.4852 9.02 44.0719 9.02C42.8052 9.02 41.7052 8.64 40.7719 7.88C39.8385 7.12 39.3719 6.06 39.3719 4.7ZM44.5719 2.1C43.7185 2.1 43.0185 2.30667 42.4719 2.72C41.9385 3.12 41.6719 3.74667 41.6719 4.6C41.6719 5.46667 41.9585 6.09333 42.5319 6.48C43.1052 6.85333 43.8385 7.04 44.7319 7.04C45.9585 7.04 47.0519 6.66 48.0119 5.9C47.7719 3.36667 46.6252 2.1 44.5719 2.1ZM53.1291 0.4H61.5091V2.44H55.2291L55.0291 5.72C55.6824 5.56 56.3691 5.48 57.0891 5.48C58.5424 5.48 59.7491 5.83333 60.7091 6.54C61.6691 7.23333 62.1491 8.32667 62.1491 9.82C62.1491 11.2333 61.6224 12.3267 60.5691 13.1C59.5291 13.8733 58.2224 14.26 56.6491 14.26C55.0091 14.26 53.5557 13.9533 52.2891 13.34V11.2C53.4357 11.8667 54.8024 12.2 56.3891 12.2C57.4291 12.2 58.2624 11.9933 58.8891 11.58C59.5291 11.1667 59.8491 10.5733 59.8491 9.8C59.8491 8.17333 58.6157 7.36 56.1491 7.36C55.0024 7.36 53.8491 7.56 52.6891 7.96L53.1291 0.4ZM78.0553 3.86C78.0553 4.56667 77.8686 5.18667 77.4953 5.72C77.1353 6.25333 76.6486 6.62 76.0353 6.82C76.7686 7.04667 77.382 7.44667 77.8753 8.02C78.3686 8.59333 78.6153 9.35333 78.6153 10.3C78.6153 11.5933 78.122 12.58 77.1353 13.26C76.1486 13.9267 74.9086 14.26 73.4153 14.26C71.6686 14.26 70.0953 13.96 68.6953 13.36V11.16C70.002 11.88 71.5153 12.2267 73.2353 12.2C75.3686 12.1733 76.4353 11.46 76.4353 10.06C76.4353 8.7 75.4753 8.02 73.5553 8.02H71.3953V5.96L73.2953 5.98C74.122 5.98 74.7553 5.82 75.1953 5.5C75.6486 5.16667 75.8753 4.71333 75.8753 4.14C75.8753 3.52667 75.622 3.05333 75.1153 2.72C74.622 2.37333 73.9153 2.2 72.9953 2.2C71.582 2.2 70.2286 2.57333 68.9353 3.32V1.14C70.202 0.473333 71.6553 0.14 73.2953 0.14C74.722 0.14 75.8686 0.473333 76.7353 1.14C77.6153 1.80667 78.0553 2.71333 78.0553 3.86ZM80.8512 1.52C82.1979 0.6 83.7046 0.14 85.3713 0.14C86.7979 0.14 87.9513 0.473333 88.8313 1.14C89.7113 1.79333 90.1513 2.73333 90.1513 3.96C90.1513 4.98667 89.8113 5.86667 89.1313 6.6C88.4646 7.32 87.5513 8.02667 86.3913 8.72C86.2979 8.77333 86.1246 8.87333 85.8713 9.02C85.6313 9.16667 85.4579 9.27333 85.3513 9.34C85.2579 9.39333 85.1046 9.48667 84.8913 9.62C84.6779 9.75333 84.5179 9.85333 84.4113 9.92C84.3179 9.98667 84.1846 10.0867 84.0113 10.22C83.8513 10.34 83.7313 10.4467 83.6513 10.54C83.5713 10.62 83.4779 10.7267 83.3713 10.86C83.2646 10.98 83.1846 11.0933 83.1313 11.2C83.0913 11.3067 83.0513 11.4267 83.0113 11.56C82.9713 11.6933 82.9513 11.8267 82.9513 11.96L90.2513 11.94V14H80.3913V12.96C80.3913 12.2133 80.4913 11.5533 80.6913 10.98C80.9046 10.3933 81.2713 9.86 81.7913 9.38C82.3246 8.88667 82.7379 8.54 83.0313 8.34C83.3246 8.12667 83.8446 7.8 84.5913 7.36C84.6579 7.30667 84.7113 7.26667 84.7513 7.24C84.8046 7.21333 84.8579 7.18667 84.9113 7.16C86.0313 6.50667 86.7513 6.03333 87.0713 5.74C87.6046 5.22 87.8713 4.64 87.8713 4C87.8713 3.41333 87.6313 2.96667 87.1513 2.66C86.6846 2.35333 86.0246 2.2 85.1713 2.2C83.6913 2.2 82.2513 2.70667 80.8512 3.72V1.52ZM92.5505 1.52C93.8971 0.6 95.4038 0.14 97.0705 0.14C98.4971 0.14 99.6505 0.473333 100.53 1.14C101.41 1.79333 101.85 2.73333 101.85 3.96C101.85 4.98667 101.51 5.86667 100.83 6.6C100.164 7.32 99.2505 8.02667 98.0905 8.72C97.9971 8.77333 97.8238 8.87333 97.5705 9.02C97.3305 9.16667 97.1571 9.27333 97.0505 9.34C96.9571 9.39333 96.8038 9.48667 96.5905 9.62C96.3771 9.75333 96.2171 9.85333 96.1105 9.92C96.0171 9.98667 95.8838 10.0867 95.7105 10.22C95.5505 10.34 95.4305 10.4467 95.3505 10.54C95.2705 10.62 95.1771 10.7267 95.0705 10.86C94.9638 10.98 94.8838 11.0933 94.8305 11.2C94.7905 11.3067 94.7505 11.4267 94.7105 11.56C94.6705 11.6933 94.6505 11.8267 94.6505 11.96L101.95 11.94V14H92.0905V12.96C92.0905 12.2133 92.1905 11.5533 92.3905 10.98C92.6038 10.3933 92.9705 9.86 93.4905 9.38C94.0238 8.88667 94.4371 8.54 94.7305 8.34C95.0238 8.12667 95.5438 7.8 96.2905 7.36C96.3571 7.30667 96.4105 7.26667 96.4505 7.24C96.5038 7.21333 96.5571 7.18667 96.6105 7.16C97.7305 6.50667 98.4505 6.03333 98.7705 5.74C99.3038 5.22 99.5705 4.64 99.5705 4C99.5705 3.41333 99.3305 2.96667 98.8505 2.66C98.3838 2.35333 97.7238 2.2 96.8705 2.2C95.3905 2.2 93.9505 2.70667 92.5505 3.72V1.52ZM103.543 8.12H110.823V10.04H103.543V8.12ZM113.852 0.4H122.232V2.44H115.952L115.752 5.72C116.405 5.56 117.092 5.48 117.812 5.48C119.265 5.48 120.472 5.83333 121.432 6.54C122.392 7.23333 122.872 8.32667 122.872 9.82C122.872 11.2333 122.345 12.3267 121.292 13.1C120.252 13.8733 118.945 14.26 117.372 14.26C115.732 14.26 114.278 13.9533 113.012 13.34V11.2C114.158 11.8667 115.525 12.2 117.112 12.2C118.152 12.2 118.985 11.9933 119.612 11.58C120.252 11.1667 120.572 10.5733 120.572 9.8C120.572 8.17333 119.338 7.36 116.872 7.36C115.725 7.36 114.572 7.56 113.412 7.96L113.852 0.4ZM131.411 0.4H133.751V9.24H136.091V11.22H133.751V14H131.551V11.22H124.171V9.28L131.411 0.4ZM131.551 9.24V3.3L126.711 9.24H131.551ZM137.86 8.12H145.14V10.04H137.86V8.12ZM154.048 0.4H156.388V9.24H158.728V11.22H156.388V14H154.188V11.22H146.808V9.28L154.048 0.4ZM154.188 9.24V3.3L149.348 9.24H154.188ZM160.716 3.78C160.716 2.79333 161.15 1.94 162.016 1.22C162.883 0.499999 164.15 0.14 165.816 0.14C167.376 0.14 168.616 0.513333 169.536 1.26C170.47 2.00667 170.95 2.89333 170.976 3.92C171.003 5.25333 170.403 6.35333 169.176 7.22C170.696 7.98 171.456 9.05333 171.456 10.44C171.456 11.5067 170.99 12.4133 170.056 13.16C169.123 13.8933 167.736 14.26 165.896 14.26C164.07 14.26 162.67 13.8733 161.696 13.1C160.723 12.3133 160.236 11.36 160.236 10.24C160.236 9.57333 160.43 8.92 160.816 8.28C161.203 7.64 161.75 7.10667 162.456 6.68C161.296 5.93333 160.716 4.96667 160.716 3.78ZM166.056 8.12C165.176 7.85333 164.523 7.64 164.096 7.48C163.576 7.8 163.176 8.18667 162.896 8.64C162.63 9.08 162.496 9.52667 162.496 9.98C162.51 10.7 162.81 11.2733 163.396 11.7C163.996 12.1133 164.863 12.32 165.996 12.32C166.916 12.32 167.67 12.1533 168.256 11.82C168.856 11.4867 169.156 11.0533 169.156 10.52C169.156 10.24 169.103 9.99333 168.996 9.78C168.89 9.55333 168.75 9.36667 168.576 9.22C168.416 9.07333 168.203 8.93333 167.936 8.8C167.67 8.66667 167.41 8.56 167.156 8.48C166.903 8.38667 166.603 8.28667 166.256 8.18C166.23 8.16667 166.203 8.16 166.176 8.16C166.163 8.16 166.143 8.15333 166.116 8.14C166.103 8.12667 166.083 8.12 166.056 8.12ZM168.736 4.2C168.736 3.58667 168.47 3.08 167.936 2.68C167.403 2.28 166.663 2.08 165.716 2.08C164.863 2.08 164.183 2.24 163.676 2.56C163.183 2.88 162.936 3.28 162.936 3.76C162.936 4.21333 163.09 4.6 163.396 4.92C163.716 5.24 164.023 5.46 164.316 5.58C164.61 5.7 165.076 5.86 165.716 6.06C165.823 6.1 165.903 6.12667 165.956 6.14C166.516 6.28667 167.003 6.42667 167.416 6.56C168.296 5.88 168.736 5.09333 168.736 4.2Z" fill="#666666"/>
</svg>
